<svg viewBox="0 0 64 64" fill="none" xmlns="http://www.w3.org/2000/svg">
<rect width="64" height="64" rx="8" fill="#AB005F"/>
<path d="M32 12C29.3736 12 26.7728 12.5173 24.3463 13.5224C21.9198 14.5275 19.715 16.0007 17.8579 17.8579C14.1071 21.6086 12 26.6957 12 32C12 37.3043 14.1071 42.3914 17.8579 46.1421C19.715 47.9993 21.9198 49.4725 24.3463 50.4776C26.7728 51.4827 29.3736 52 32 52C37.3043 52 42.3914 49.8929 46.1421 46.1421C49.8929 42.3914 52 37.3043 52 32C52 29.68 51.58 27.38 50.78 25.22L47.58 28.42C47.86 29.6 48 30.8 48 32C48 36.2435 46.3143 40.3131 43.3137 43.3137C40.3131 46.3143 36.2435 48 32 48C27.7565 48 23.6869 46.3143 20.6863 43.3137C17.6857 40.3131 16 36.2435 16 32C16 27.7565 17.6857 23.6869 20.6863 20.6863C23.6869 17.6857 27.7565 16 32 16C33.2 16 34.4 16.14 35.58 16.42L38.8 13.2C36.62 12.42 34.32 12 32 12ZM46 12L38 20V23L32.9 28.1C32.6 28 32.3 28 32 28C30.9391 28 29.9217 28.4214 29.1716 29.1716C28.4214 29.9217 28 30.9391 28 32C28 33.0609 28.4214 34.0783 29.1716 34.8284C29.9217 35.5786 30.9391 36 32 36C33.0609 36 34.0783 35.5786 34.8284 34.8284C35.5786 34.0783 36 33.0609 36 32C36 31.7 36 31.4 35.9 31.1L41 26H44L52 18H46V12ZM32 20C28.8174 20 25.7652 21.2643 23.5147 23.5147C21.2643 25.7652 20 28.8174 20 32C20 35.1826 21.2643 38.2348 23.5147 40.4853C25.7652 42.7357 28.8174 44 32 44C35.1826 44 38.2348 42.7357 40.4853 40.4853C42.7357 38.2348 44 35.1826 44 32H40C40 34.1217 39.1571 36.1566 37.6569 37.6569C36.1566 39.1571 34.1217 40 32 40C29.8783 40 27.8434 39.1571 26.3431 37.6569C24.8429 36.1566 24 34.1217 24 32C24 29.8783 24.8429 27.8434 26.3431 26.3431C27.8434 24.8429 29.8783 24 32 24V20Z" fill="white"/>
</svg>
